<svg xmlns="http://www.w3.org/2000/svg" width="1200" height="700" viewBox="0 0 1200 700"><rect x="0" y="0" width="1200" height="700" fill="#FFFFFF"/><text x="600.0" y="90" font-family="Inter, Arial, sans-serif" font-size="28px" font-weight="700" fill="#1F2937" text-anchor="middle">3x3,64 Ixl; 64 X3 3x3,64 X3</text><text x="600.0" y="120" font-family="Inter, Arial, sans-serif" font-size="13px" font-weight="400" fill="#64748B" text-anchor="middle">Ixl, 2048 • 7x7</text><rect x="90" y="150" width="1060" height="52" fill="#FFFFFF" stroke="#64748B" stroke-width="1.5" rx="8"/><rect x="90" y="150" width="1060" height="52" fill="#E5E7EB" opacity="0.65"/><text x="217.2" y="181.0" font-family="Inter, Arial, sans-serif" font-size="14px" font-weight="700" fill="#1F2937" text-anchor="middle">Ixl, 2048</text><rect x="371.5333333333333" y="171.0" width="10" height="10" rx="2" fill="#1D4ED8"/><text x="413.5333333333333" y="181.0" font-family="Inter, Arial, sans-serif" font-size="14px" font-weight="700" fill="#1F2937" text-anchor="middle">3x3,64
3x3,64</text><rect x="505.79999999999995" y="171.0" width="10" height="10" rx="2" fill="#0F766E"/><text x="547.8" y="181.0" font-family="Inter, Arial, sans-serif" font-size="14px" font-weight="700" fill="#1F2937" text-anchor="middle">3x3,64
3x3,64 (2)</text><rect x="640.0666666666667" y="171.0" width="10" height="10" rx="2" fill="#B45309"/><text x="682.0666666666667" y="181.0" font-family="Inter, Arial, sans-serif" font-size="14px" font-weight="700" fill="#1F2937" text-anchor="middle">3x3,64
1x1,256</text><rect x="774.3333333333334" y="171.0" width="10" height="10" rx="2" fill="#7C3AED"/><text x="816.3333333333334" y="181.0" font-family="Inter, Arial, sans-serif" font-size="14px" font-weight="700" fill="#1F2937" text-anchor="middle">None</text><rect x="908.6" y="171.0" width="10" height="10" rx="2" fill="#BE123C"/><text x="950.6" y="181.0" font-family="Inter, Arial, sans-serif" font-size="14px" font-weight="700" fill="#1F2937" text-anchor="middle">3x3,64
1x1, 256</text><rect x="1042.8666666666668" y="171.0" width="10" height="10" rx="2" fill="#0369A1"/><text x="1084.8666666666668" y="181.0" font-family="Inter, Arial, sans-serif" font-size="14px" font-weight="700" fill="#1F2937" text-anchor="middle">None (2)</text><line x1="344.4" y1="150" x2="344.4" y2="202" stroke="#E5E7EB" stroke-width="1"/><line x1="344.4" y1="150" x2="344.4" y2="202" stroke="#E5E7EB" stroke-width="1"/><line x1="478.66666666666663" y1="150" x2="478.66666666666663" y2="202" stroke="#E5E7EB" stroke-width="1"/><line x1="612.9333333333334" y1="150" x2="612.9333333333334" y2="202" stroke="#E5E7EB" stroke-width="1"/><line x1="747.2" y1="150" x2="747.2" y2="202" stroke="#E5E7EB" stroke-width="1"/><line x1="881.4666666666667" y1="150" x2="881.4666666666667" y2="202" stroke="#E5E7EB" stroke-width="1"/><line x1="1015.7333333333333" y1="150" x2="1015.7333333333333" y2="202" stroke="#E5E7EB" stroke-width="1"/><line x1="1150.0" y1="150" x2="1150.0" y2="202" stroke="#E5E7EB" stroke-width="1"/><line x1="90" y1="202" x2="1150" y2="202" stroke="#E5E7EB" stroke-width="1"/></svg>