<svg xmlns="http://www.w3.org/2000/svg" width="1200" height="700" viewBox="0 0 1200 700"><rect x="0" y="0" width="1200" height="700" fill="#FFFFFF"/><text x="600.0" y="45" font-family="Inter, Arial, sans-serif" font-size="28px" font-weight="700" fill="#1F2937" text-anchor="middle">Test Data</text><line x1="90" y1="90" x2="90" y2="610" stroke="#64748B" stroke-width="1.5"/><line x1="90" y1="610" x2="1150" y2="610" stroke="#64748B" stroke-width="1.5"/><line x1="90" y1="812.24" x2="1150" y2="812.24" stroke="#E5E7EB" stroke-width="1"/><text x="78" y="817.2415554224931" font-family="Inter, Arial, sans-serif" font-size="14px" font-weight="400" fill="#1F2937" text-anchor="end">-500</text><line x1="90" y1="583.30" x2="1150" y2="583.30" stroke="#E5E7EB" stroke-width="1"/><text x="78" y="588.2957627417139" font-family="Inter, Arial, sans-serif" font-size="14px" font-weight="400" fill="#1F2937" text-anchor="end">0</text><line x1="90" y1="354.35" x2="1150" y2="354.35" stroke="#E5E7EB" stroke-width="1"/><text x="78" y="359.34997006093477" font-family="Inter, Arial, sans-serif" font-size="14px" font-weight="400" fill="#1F2937" text-anchor="end">500</text><line x1="90" y1="125.40" x2="1150" y2="125.40" stroke="#E5E7EB" stroke-width="1"/><text x="78" y="130.40417738015566" font-family="Inter, Arial, sans-serif" font-size="14px" font-weight="400" fill="#1F2937" text-anchor="end">1.0K</text><line x1="90" y1="-103.54" x2="1150" y2="-103.54" stroke="#E5E7EB" stroke-width="1"/><text x="78" y="-98.54161530062356" font-family="Inter, Arial, sans-serif" font-size="14px" font-weight="400" fill="#1F2937" text-anchor="end">1.5K</text><text x="355.0" y="635" font-family="Inter, Arial, sans-serif" font-size="14px" font-weight="400" fill="#1F2937" text-anchor="middle">A</text><text x="885.0" y="635" font-family="Inter, Arial, sans-serif" font-size="14px" font-weight="400" fill="#1F2937" text-anchor="middle">B</text><rect x="164.20" y="125.86" width="343.44" height="484.14" rx="4" fill="#2563EB"/><rect x="694.20" y="574.14" width="343.44" height="35.86" rx="4" fill="#2563EB"/><text x="620.0" y="675" font-family="Inter, Arial, sans-serif" font-size="14px" font-weight="400" fill="#1F2937" text-anchor="middle">X</text><text transform="rotate(-90)" x="-350.0" y="25" font-family="Inter, Arial, sans-serif" font-size="14px" fill="#1F2937" text-anchor="middle">Y</text></svg>