<svg xmlns="http://www.w3.org/2000/svg" width="1200" height="700" viewBox="0 0 1200 700"><rect x="0" y="0" width="1200" height="700" fill="#FFFFFF"/><text x="600.0" y="90" font-family="Inter, Arial, sans-serif" font-size="28px" font-weight="700" fill="#1F2937" text-anchor="middle">Data Table</text><text x="600.0" y="120" font-family="Inter, Arial, sans-serif" font-size="13px" font-weight="400" fill="#64748B" text-anchor="middle">0.23*</text><rect x="90" y="150" width="1060" height="52" fill="#FFFFFF" stroke="#64748B" stroke-width="1.5" rx="8"/><rect x="90" y="150" width="1060" height="52" fill="#E5E7EB" opacity="0.65"/><text x="217.2" y="181.0" font-family="Inter, Arial, sans-serif" font-size="14px" font-weight="700" fill="#1F2937" text-anchor="middle">Category</text><rect x="349.15555555555557" y="171.0" width="10" height="10" rx="2" fill="#1D4ED8"/><text x="391.15555555555557" y="181.0" font-family="Inter, Arial, sans-serif" font-size="14px" font-weight="700" fill="#1F2937" text-anchor="middle">Item2</text><rect x="438.66666666666663" y="171.0" width="10" height="10" rx="2" fill="#0F766E"/><text x="480.66666666666663" y="181.0" font-family="Inter, Arial, sans-serif" font-size="14px" font-weight="700" fill="#1F2937" text-anchor="middle">Item3</text><rect x="528.1777777777778" y="171.0" width="10" height="10" rx="2" fill="#B45309"/><text x="570.1777777777778" y="181.0" font-family="Inter, Arial, sans-serif" font-size="14px" font-weight="700" fill="#1F2937" text-anchor="middle">Item4</text><rect x="617.688888888889" y="171.0" width="10" height="10" rx="2" fill="#7C3AED"/><text x="659.688888888889" y="181.0" font-family="Inter, Arial, sans-serif" font-size="14px" font-weight="700" fill="#1F2937" text-anchor="middle">Item</text><rect x="707.2" y="171.0" width="10" height="10" rx="2" fill="#BE123C"/><text x="749.2" y="181.0" font-family="Inter, Arial, sans-serif" font-size="14px" font-weight="700" fill="#1F2937" text-anchor="middle">Item6</text><rect x="796.7111111111111" y="171.0" width="10" height="10" rx="2" fill="#0369A1"/><text x="838.7111111111111" y="181.0" font-family="Inter, Arial, sans-serif" font-size="14px" font-weight="700" fill="#1F2937" text-anchor="middle">Item7</text><rect x="886.2222222222223" y="171.0" width="10" height="10" rx="2" fill="#374151"/><text x="928.2222222222223" y="181.0" font-family="Inter, Arial, sans-serif" font-size="14px" font-weight="700" fill="#1F2937" text-anchor="middle">Item8</text><rect x="975.7333333333333" y="171.0" width="10" height="10" rx="2" fill="#047857"/><text x="1017.7333333333333" y="181.0" font-family="Inter, Arial, sans-serif" font-size="14px" font-weight="700" fill="#1F2937" text-anchor="middle">Item9</text><rect x="1065.2444444444445" y="171.0" width="10" height="10" rx="2" fill="#1D4ED8"/><text x="1107.2444444444445" y="181.0" font-family="Inter, Arial, sans-serif" font-size="14px" font-weight="700" fill="#1F2937" text-anchor="middle">Iteml0</text><line x1="344.4" y1="150" x2="344.4" y2="202" stroke="#E5E7EB" stroke-width="1"/><line x1="344.4" y1="150" x2="344.4" y2="202" stroke="#E5E7EB" stroke-width="1"/><line x1="433.9111111111111" y1="150" x2="433.9111111111111" y2="202" stroke="#E5E7EB" stroke-width="1"/><line x1="523.4222222222222" y1="150" x2="523.4222222222222" y2="202" stroke="#E5E7EB" stroke-width="1"/><line x1="612.9333333333334" y1="150" x2="612.9333333333334" y2="202" stroke="#E5E7EB" stroke-width="1"/><line x1="702.4444444444445" y1="150" x2="702.4444444444445" y2="202" stroke="#E5E7EB" stroke-width="1"/><line x1="791.9555555555555" y1="150" x2="791.9555555555555" y2="202" stroke="#E5E7EB" stroke-width="1"/><line x1="881.4666666666667" y1="150" x2="881.4666666666667" y2="202" stroke="#E5E7EB" stroke-width="1"/><line x1="970.9777777777778" y1="150" x2="970.9777777777778" y2="202" stroke="#E5E7EB" stroke-width="1"/><line x1="1060.488888888889" y1="150" x2="1060.488888888889" y2="202" stroke="#E5E7EB" stroke-width="1"/><line x1="1150.0" y1="150" x2="1150.0" y2="202" stroke="#E5E7EB" stroke-width="1"/><line x1="90" y1="202" x2="1150" y2="202" stroke="#E5E7EB" stroke-width="1"/></svg>