<svg xmlns="http://www.w3.org/2000/svg" width="1200" height="700" viewBox="0 0 1200 700"><rect x="0" y="0" width="1200" height="700" fill="#FFFFFF"/><text x="600.0" y="90" font-family="Inter, Arial, sans-serif" font-size="28px" font-weight="700" fill="#1F2937" text-anchor="middle">Data Table</text><text x="600.0" y="120" font-family="Inter, Arial, sans-serif" font-size="13px" font-weight="400" fill="#64748B" text-anchor="middle">73**</text><rect x="90" y="150" width="1060" height="52" fill="#FFFFFF" stroke="#64748B" stroke-width="1.5" rx="8"/><rect x="90" y="150" width="1060" height="52" fill="#E5E7EB" opacity="0.65"/><text x="217.2" y="181.0" font-family="Inter, Arial, sans-serif" font-size="14px" font-weight="700" fill="#1F2937" text-anchor="middle">Category</text><rect x="354.75" y="171.0" width="10" height="10" rx="2" fill="#1D4ED8"/><text x="396.75" y="181.0" font-family="Inter, Arial, sans-serif" font-size="14px" font-weight="700" fill="#1F2937" text-anchor="middle">Item?</text><rect x="455.45" y="171.0" width="10" height="10" rx="2" fill="#0F766E"/><text x="497.45" y="181.0" font-family="Inter, Arial, sans-serif" font-size="14px" font-weight="700" fill="#1F2937" text-anchor="middle">Item3</text><rect x="556.15" y="171.0" width="10" height="10" rx="2" fill="#B45309"/><text x="598.15" y="181.0" font-family="Inter, Arial, sans-serif" font-size="14px" font-weight="700" fill="#1F2937" text-anchor="middle">Item4</text><rect x="656.85" y="171.0" width="10" height="10" rx="2" fill="#7C3AED"/><text x="698.85" y="181.0" font-family="Inter, Arial, sans-serif" font-size="14px" font-weight="700" fill="#1F2937" text-anchor="middle">Items</text><rect x="757.5500000000001" y="171.0" width="10" height="10" rx="2" fill="#BE123C"/><text x="799.5500000000001" y="181.0" font-family="Inter, Arial, sans-serif" font-size="14px" font-weight="700" fill="#1F2937" text-anchor="middle">Item6</text><rect x="858.25" y="171.0" width="10" height="10" rx="2" fill="#0369A1"/><text x="900.25" y="181.0" font-family="Inter, Arial, sans-serif" font-size="14px" font-weight="700" fill="#1F2937" text-anchor="middle">Item7</text><rect x="958.95" y="171.0" width="10" height="10" rx="2" fill="#374151"/><text x="1000.95" y="181.0" font-family="Inter, Arial, sans-serif" font-size="14px" font-weight="700" fill="#1F2937" text-anchor="middle">Item8</text><rect x="1059.6499999999999" y="171.0" width="10" height="10" rx="2" fill="#047857"/><text x="1101.6499999999999" y="181.0" font-family="Inter, Arial, sans-serif" font-size="14px" font-weight="700" fill="#1F2937" text-anchor="middle">Item9</text><line x1="344.4" y1="150" x2="344.4" y2="202" stroke="#E5E7EB" stroke-width="1"/><line x1="344.4" y1="150" x2="344.4" y2="202" stroke="#E5E7EB" stroke-width="1"/><line x1="445.09999999999997" y1="150" x2="445.09999999999997" y2="202" stroke="#E5E7EB" stroke-width="1"/><line x1="545.8" y1="150" x2="545.8" y2="202" stroke="#E5E7EB" stroke-width="1"/><line x1="646.5" y1="150" x2="646.5" y2="202" stroke="#E5E7EB" stroke-width="1"/><line x1="747.2" y1="150" x2="747.2" y2="202" stroke="#E5E7EB" stroke-width="1"/><line x1="847.9" y1="150" x2="847.9" y2="202" stroke="#E5E7EB" stroke-width="1"/><line x1="948.6" y1="150" x2="948.6" y2="202" stroke="#E5E7EB" stroke-width="1"/><line x1="1049.3" y1="150" x2="1049.3" y2="202" stroke="#E5E7EB" stroke-width="1"/><line x1="1150.0" y1="150" x2="1150.0" y2="202" stroke="#E5E7EB" stroke-width="1"/><line x1="90" y1="202" x2="1150" y2="202" stroke="#E5E7EB" stroke-width="1"/></svg>